<?xml version="1.0" encoding="utf-8"?>
<!-- Generator: Adobe Illustrator 15.0.2, SVG Export Plug-In . SVG Version: 6.00 Build 0)  -->
<!DOCTYPE svg PUBLIC "-//W3C//DTD SVG 1.1//EN" "http://www.w3.org/Graphics/SVG/1.1/DTD/svg11.dtd">
<svg version="1.1" id="Layer_1" xmlns="http://www.w3.org/2000/svg" xmlns:xlink="http://www.w3.org/1999/xlink" x="0px" y="0px"
	 width="423.349px" height="392px" viewBox="0 0 423.349 392" enable-background="new 0 0 423.349 392" xml:space="preserve">
<g>
	<polygon fill="#72C276" points="407.098,217.788 420.764,195.914 405.44,171.389 413.043,143.879 392.075,124.944 391.81,97.836 
		365.033,83.846 356.498,56.666 329.981,50.637 316.22,28.62 285.36,28.62 263.495,8.881 235.45,16.146 209.802,2.75 
		183.147,17.263 153.464,10.516 134.656,28.62 107.133,28.62 91.646,53.406 62.171,61.042 54.977,87.058 29.671,100.836 
		29.952,129.426 8.692,149.892 16.268,174.024 2.585,195.914 18.03,220.625 10.403,248.201 31.283,267.051 31.545,293.997 
		58.339,307.992 66.949,335.412 93.542,341.459 107.133,363.209 137.813,363.209 159.957,383.197 188.259,375.865 213.551,389.083 
		239.907,374.732 269.981,381.562 289.049,363.209 316.22,363.209 331.504,338.753 361.285,331.038 368.575,304.668 393.68,291 
		393.409,262.744 414.761,242.193 	"/>
	<path fill="#38356B" d="M212.184,22.485c-103.138,0-186.746,77.339-186.746,172.737c0,95.395,83.608,172.745,186.746,172.745
		c103.145,0,186.761-77.35,186.761-172.745C398.945,99.824,315.329,22.485,212.184,22.485z"/>
	<path fill="#009479" stroke="#C04725" stroke-width="0.7268" d="M212.237,38.853c-93.304,0-168.957,69.961-168.957,156.273
		c0,86.303,75.653,156.271,168.957,156.271c93.316,0,168.959-69.967,168.959-156.271C381.196,108.813,305.554,38.853,212.237,38.853
		z"/>
	<path fill="#C89E32" stroke="#FFFFFF" stroke-width="0.944" d="M212.237,36.903c-94.469,0-171.056,70.836-171.056,158.219
		c0,87.381,76.587,158.224,171.056,158.224c94.467,0,171.065-70.842,171.065-158.224C383.303,107.739,306.704,36.903,212.237,36.903
		z"/>
	<path fill="#E2C78B" d="M212.199,88.355c-64.845,0-117.423,47.879-117.423,106.934c0,59.051,52.578,106.935,117.423,106.935
		c64.85,0,117.421-47.884,117.421-106.935C329.62,136.234,277.048,88.355,212.199,88.355z"/>
	<path fill="#C07A37" d="M212.207,295.283c-62.852,0-113.807-44.746-113.807-99.947c0-55.2,50.955-99.951,113.807-99.951
		c62.863,0,113.819,44.751,113.819,99.951C326.026,250.538,275.07,295.283,212.207,295.283z"/>
	<g>
		<path fill="#F9E27E" stroke="#F8D45D" stroke-width="1.8153" d="M361.437,187.017c-4.557-69.875-66.963-125.543-144.222-127.859
			l-6.672-13.821l-6.724,13.935C127.953,63.093,67.17,118.41,62.926,187.5l-13.997,6.646l13.904,6.623
			c3.074,69.905,64.001,126.226,140.371,130.36l7.338,14.896l7.286-14.748c77.778-2.621,140.362-59.328,143.746-130.043
			l14.497-7.088L361.437,187.017z M212.207,295.283c-62.852,0-113.807-44.746-113.807-99.947c0-55.2,50.955-99.951,113.807-99.951
			c62.863,0,113.819,44.751,113.819,99.951C326.026,250.538,275.07,295.283,212.207,295.283z"/>
	</g>
	<g>
		<path fill="#38356B" d="M361.437,187.017c-4.557-69.875-66.963-125.543-144.222-127.859l-6.672-13.821l-6.724,13.935
			C127.953,63.093,67.17,118.41,62.926,187.5l-13.997,6.646l13.904,6.623c3.074,69.905,64.001,126.226,140.371,130.36l7.338,14.896
			l7.286-14.748c77.778-2.621,140.362-59.328,143.746-130.043l14.497-7.088L361.437,187.017z M212.207,295.283
			c-62.852,0-113.807-44.746-113.807-99.947c0-55.2,50.955-99.951,113.807-99.951c62.863,0,113.819,44.751,113.819,99.951
			C326.026,250.538,275.07,295.283,212.207,295.283z"/>
	</g>
	<g>
		<path fill="#FFFFFF" stroke="#FFFFFF" stroke-width="0.1307" d="M91.959,167.483c0.08,0.136,0.11,0.346,0.095,0.623l0.295,0.097
			l1.445-4.523l-0.294-0.094c-0.144,0.231-0.279,0.384-0.424,0.45c-0.148,0.067-0.322,0.067-0.534,0l-11.594-3.708
			c-0.201-0.062-0.342-0.163-0.419-0.299c-0.078-0.137-0.104-0.341-0.083-0.623l-0.301-0.097l-1.446,4.524l0.301,0.1
			c0.15-0.233,0.294-0.391,0.434-0.455c0.142-0.071,0.311-0.071,0.51-0.007l11.597,3.712
			C91.748,167.249,91.887,167.348,91.959,167.483z"/>
		<path fill="#FFFFFF" stroke="#FFFFFF" stroke-width="0.1307" d="M90.989,145.277l7.577,4.361c0.191,0.108,0.357,0.148,0.507,0.113
			c0.152-0.039,0.323-0.154,0.517-0.357l0.275,0.158l-2.235,3.877l-0.268-0.157c0.073-0.268,0.088-0.474,0.047-0.621
			c-0.047-0.145-0.165-0.277-0.355-0.386l-10.554-6.077c-0.179-0.103-0.351-0.139-0.495-0.1c-0.151,0.035-0.323,0.153-0.523,0.348
			l-0.274-0.159l2.58-4.472l0.274,0.161c-0.094,0.314-0.035,0.531,0.18,0.655c0.147,0.086,0.354,0.086,0.641,0.007l11.309-3.115
			l-7.396-4.257c-0.187-0.11-0.349-0.142-0.499-0.11c-0.148,0.042-0.321,0.155-0.515,0.355l-0.279-0.154l2.235-3.886l0.277,0.16
			c-0.074,0.271-0.092,0.482-0.047,0.627c0.047,0.147,0.156,0.278,0.336,0.377l10.554,6.078c0.192,0.107,0.358,0.147,0.508,0.107
			c0.15-0.034,0.328-0.152,0.519-0.352l0.276,0.158l-2.385,4.146l-0.277-0.162c0.105-0.299,0.053-0.509-0.16-0.625
			c-0.114-0.074-0.421-0.042-0.908,0.102L90.989,145.277z"/>
		<path fill="#FFFFFF" stroke="#FFFFFF" stroke-width="0.1307" d="M109.505,116.167l7.946,7.456
			c0.157,0.154,0.317,0.228,0.468,0.228c0.15,0,0.354-0.073,0.586-0.228l0.228,0.215l-3.252,3.466l-0.225-0.213
			c0.13-0.25,0.191-0.449,0.188-0.6c-0.012-0.159-0.098-0.313-0.257-0.455l-7.949-7.459l-3.226,3.437
			c-0.155,0.162-0.233,0.314-0.246,0.471c-0.008,0.151,0.052,0.342,0.195,0.575l-0.248,0.265l-2.7-2.537l0.244-0.267
			c0.245,0.119,0.437,0.171,0.588,0.153c0.144-0.019,0.302-0.107,0.453-0.272l8.71-9.276c0.151-0.165,0.239-0.327,0.248-0.479
			c0.012-0.157-0.05-0.346-0.191-0.577l0.251-0.263l2.707,2.54l-0.251,0.26c-0.242-0.119-0.434-0.178-0.59-0.152
			c-0.152,0.024-0.305,0.111-0.46,0.282L109.505,116.167z"/>
		<path fill="#FFFFFF" stroke="#FFFFFF" stroke-width="0.1307" d="M129.283,106.273l2.289,3.259l7.973-5.597
			c0.18-0.133,0.287-0.266,0.328-0.413c0.036-0.153,0.016-0.351-0.071-0.597l0.298-0.212l2.135,3.035l-0.298,0.211
			c-0.204-0.172-0.384-0.258-0.547-0.271c-0.15-0.012-0.316,0.041-0.496,0.173l-11.269,7.91l-0.178-0.261
			c0.178-0.215,0.284-0.396,0.304-0.547c0.021-0.152-0.032-0.324-0.159-0.497l-6.989-9.954c-0.122-0.185-0.263-0.283-0.413-0.318
			c-0.151-0.029-0.36,0-0.62,0.1l-0.18-0.257l11.041-7.751c0.181-0.13,0.293-0.27,0.333-0.417c0.039-0.152,0.019-0.353-0.068-0.599
			l0.293-0.209l2.131,3.036l-0.292,0.207c-0.204-0.161-0.383-0.247-0.543-0.265c-0.154-0.012-0.322,0.041-0.502,0.173l-7.741,5.436
			l1.939,2.775l5.047-3.541c0.184-0.127,0.293-0.265,0.336-0.419c0.04-0.146,0.015-0.343-0.068-0.597l0.293-0.208l2.081,2.958
			l-0.298,0.209c-0.201-0.156-0.378-0.248-0.541-0.256c-0.147-0.019-0.319,0.037-0.506,0.162L129.283,106.273z"/>
		<path fill="#FFFFFF" stroke="#FFFFFF" stroke-width="0.1307" d="M152.413,93.046l1.903,4.405c0.086,0.196,0.199,0.327,0.345,0.388
			c0.148,0.064,0.357,0.073,0.624,0.032l0.124,0.286l-4.359,1.884l-0.124-0.289c0.221-0.17,0.356-0.329,0.412-0.478
			c0.052-0.143,0.036-0.313-0.05-0.508l-4.822-11.174c-0.098-0.198-0.207-0.328-0.349-0.391c-0.142-0.061-0.352-0.067-0.629-0.029
			l-0.126-0.288l8.712-3.771c1.063-0.456,1.931-0.76,2.6-0.914c0.671-0.158,1.302-0.184,1.891-0.101
			c0.678,0.101,1.275,0.379,1.784,0.833c0.493,0.441,0.875,0.969,1.143,1.598c0.921,2.13,0.207,3.927-2.167,5.382l4.301,2.507
			c0.762,0.438,1.287,0.704,1.588,0.793c0.304,0.085,0.62,0.074,0.948-0.046l0.124,0.289l-4.994,2.159l-0.122-0.287
			c0.321-0.207,0.44-0.396,0.359-0.577c-0.047-0.118-0.324-0.327-0.84-0.639l-4.514-2.692L152.413,93.046z M151.48,90.888
			l4.689-2.028c0.701-0.3,1.176-0.528,1.446-0.692c0.27-0.164,0.499-0.355,0.683-0.583c0.401-0.484,0.458-1.075,0.158-1.756
			c-0.3-0.685-0.763-1.053-1.393-1.091c-0.297-0.022-0.595,0.011-0.888,0.095c-0.287,0.085-0.789,0.279-1.499,0.581l-4.688,2.032
			L151.48,90.888z"/>
		<path fill="#FFFFFF" stroke="#FFFFFF" stroke-width="0.1307" d="M177.51,80.089l1.773,8.565c0.051,0.209,0.134,0.362,0.257,0.451
			c0.131,0.083,0.329,0.136,0.612,0.152l0.064,0.314l-4.383,0.903l-0.065-0.307c0.248-0.122,0.414-0.253,0.493-0.382
			c0.091-0.131,0.106-0.307,0.059-0.523l-2.473-11.92c-0.042-0.204-0.127-0.351-0.253-0.443c-0.122-0.08-0.325-0.139-0.611-0.152
			l-0.062-0.307l5.055-1.051l0.062,0.313c-0.295,0.139-0.419,0.329-0.369,0.57c0.036,0.168,0.174,0.326,0.42,0.484l9.849,6.381
			l-1.735-8.355c-0.039-0.203-0.126-0.35-0.256-0.439c-0.122-0.094-0.328-0.143-0.604-0.155l-0.066-0.311l4.384-0.907l0.063,0.31
			c-0.251,0.125-0.419,0.254-0.499,0.383c-0.078,0.132-0.095,0.301-0.057,0.502l2.471,11.925c0.043,0.212,0.133,0.365,0.26,0.457
			c0.127,0.087,0.328,0.137,0.605,0.152l0.068,0.305l-4.687,0.974l-0.067-0.313c0.294-0.122,0.418-0.297,0.369-0.535
			c-0.029-0.135-0.256-0.34-0.688-0.611L177.51,80.089z"/>
		<path fill="#FFFFFF" stroke="#FFFFFF" stroke-width="0.1307" d="M214.806,82.17l-6.852,0.047l-1.006,2.039
			c-0.139,0.284-0.2,0.506-0.2,0.666c0,0.315,0.241,0.527,0.746,0.644v0.317l-5.041,0.031v-0.315
			c0.292-0.058,0.52-0.155,0.673-0.299c0.154-0.14,0.335-0.417,0.524-0.821l5.5-11.09c0.179-0.352,0.262-0.628,0.262-0.843
			c0-0.326-0.219-0.556-0.649-0.691v-0.316l5.371-0.036v0.319c-0.435,0.118-0.651,0.328-0.646,0.619
			c0,0.209,0.075,0.435,0.211,0.698l5.848,11.04c0.248,0.468,0.471,0.793,0.655,0.961c0.183,0.176,0.437,0.284,0.749,0.34v0.314
			l-5.59,0.035v-0.319c0.491-0.078,0.738-0.296,0.732-0.661c0-0.146-0.077-0.362-0.23-0.647L214.806,82.17z M213.85,80.23
			l-2.479-5.097l-2.451,5.134L213.85,80.23z"/>
		<path fill="#FFFFFF" stroke="#FFFFFF" stroke-width="0.1307" d="M239.008,76.156l-1.781,10.758
			c-0.036,0.214-0.019,0.386,0.076,0.514c0.083,0.124,0.26,0.246,0.508,0.362l-0.047,0.311l-4.688-0.778l0.053-0.308
			c0.276-0.026,0.478-0.084,0.602-0.181c0.124-0.091,0.2-0.251,0.236-0.464l1.777-10.753l-4.657-0.768
			c-0.213-0.036-0.391-0.018-0.521,0.061c-0.141,0.077-0.258,0.232-0.372,0.475l-0.359-0.057l0.608-3.656l0.354,0.055
			c0.041,0.267,0.106,0.46,0.2,0.579c0.101,0.113,0.255,0.187,0.479,0.227l12.556,2.072c0.224,0.037,0.401,0.018,0.531-0.061
			c0.141-0.075,0.253-0.237,0.377-0.475l0.354,0.058l-0.602,3.656l-0.354-0.058c-0.036-0.264-0.101-0.455-0.202-0.57
			c-0.101-0.117-0.266-0.19-0.495-0.232L239.008,76.156z"/>
		<path fill="#FFFFFF" stroke="#FFFFFF" stroke-width="0.1307" d="M253.495,90.831l3.713-11.594c0.066-0.195,0.059-0.368,0-0.511
			c-0.065-0.14-0.218-0.282-0.454-0.435l0.096-0.298l4.521,1.447l-0.094,0.305c-0.283-0.021-0.49,0.007-0.625,0.081
			c-0.137,0.08-0.229,0.221-0.303,0.416l-3.711,11.602c-0.065,0.206-0.059,0.379,0.005,0.525c0.065,0.141,0.219,0.284,0.449,0.425
			l-0.101,0.299l-4.516-1.447l0.101-0.3c0.277,0.017,0.484-0.017,0.619-0.088C253.324,91.183,253.424,91.039,253.495,90.831z"/>
		<path fill="#FFFFFF" stroke="#FFFFFF" stroke-width="0.1307" d="M281.599,87.744c2.355,1.215,3.909,2.783,4.664,4.697
			c0.809,2.012,0.692,4.018-0.342,6.016c-0.626,1.223-1.57,2.183-2.811,2.885c-2.438,1.361-5.207,1.241-8.317-0.362
			c-2.336-1.213-3.878-2.767-4.64-4.682c-0.396-1.024-0.561-2.087-0.485-3.184c0.078-0.962,0.344-1.882,0.787-2.752
			c0.661-1.285,1.617-2.272,2.863-2.975C275.685,86.044,278.441,86.16,281.599,87.744z M280.489,89.92
			c-1.281-0.663-2.538-0.852-3.771-0.57c-1.446,0.327-2.533,1.187-3.247,2.572c-0.715,1.377-0.786,2.758-0.212,4.135
			c0.478,1.168,1.37,2.082,2.667,2.756c1.293,0.666,2.55,0.859,3.772,0.576c0.732-0.17,1.388-0.497,1.985-0.977
			c0.519-0.436,0.932-0.944,1.239-1.539c0.75-1.446,0.832-2.843,0.242-4.193C282.674,91.522,281.782,90.605,280.489,89.92z"/>
		<path fill="#FFFFFF" stroke="#FFFFFF" stroke-width="0.1307" d="M300.62,105.442l-5.638,6.688
			c-0.134,0.168-0.201,0.329-0.194,0.481c0.012,0.157,0.094,0.345,0.259,0.575l-0.199,0.243l-3.425-2.885l0.2-0.239
			c0.249,0.116,0.448,0.169,0.604,0.153c0.152-0.019,0.3-0.111,0.441-0.28l7.84-9.313c0.136-0.161,0.201-0.317,0.188-0.47
			c-0.005-0.16-0.088-0.353-0.253-0.576l0.201-0.246l3.955,3.325l-0.207,0.245c-0.29-0.148-0.519-0.125-0.673,0.062
			c-0.112,0.129-0.153,0.337-0.123,0.626l1.073,11.687l5.496-6.53c0.136-0.167,0.195-0.317,0.195-0.475
			c-0.011-0.152-0.101-0.346-0.26-0.574l0.201-0.24l3.424,2.881l-0.2,0.243c-0.249-0.123-0.456-0.173-0.609-0.158
			c-0.153,0.022-0.295,0.105-0.43,0.272l-7.839,9.317c-0.142,0.169-0.207,0.324-0.195,0.478c0,0.153,0.09,0.345,0.255,0.578
			l-0.207,0.242l-3.66-3.08l0.201-0.244c0.283,0.152,0.495,0.139,0.649-0.044c0.088-0.107,0.111-0.415,0.059-0.918L300.62,105.442z"
			/>
		<path fill="#FFFFFF" stroke="#FFFFFF" stroke-width="0.1307" d="M321.522,136.386l-4.057-5.528l-2.242,0.386
			c-0.313,0.051-0.532,0.126-0.661,0.219c-0.248,0.188-0.277,0.516-0.083,0.991l-0.248,0.186l-2.987-4.064l0.254-0.188
			c0.218,0.204,0.437,0.329,0.637,0.367c0.207,0.046,0.531,0.024,0.98-0.054l12.202-2.056c0.384-0.06,0.667-0.155,0.832-0.283
			c0.26-0.188,0.325-0.501,0.183-0.932l0.254-0.185l3.182,4.331l-0.255,0.19c-0.353-0.282-0.648-0.339-0.891-0.163
			c-0.159,0.123-0.306,0.319-0.432,0.583l-5.513,11.218c-0.236,0.473-0.365,0.834-0.396,1.088c-0.03,0.249,0.03,0.521,0.166,0.803
			l-0.26,0.19l-3.306-4.503l0.26-0.193c0.355,0.351,0.679,0.426,0.963,0.21c0.125-0.09,0.253-0.274,0.394-0.57L321.522,136.386z
			 M322.537,134.479l2.668-5.011l-5.596,1.03L322.537,134.479z"/>
		<path fill="#FFFFFF" stroke="#FFFFFF" stroke-width="0.1307" d="M330.241,154.506l3.577,8.6c0.095,0.209,0.207,0.351,0.342,0.427
			c0.136,0.066,0.336,0.093,0.596,0.063l0.143,0.334l-3.424,1.425l-0.131-0.334c0.201-0.163,0.332-0.326,0.373-0.468
			c0.047-0.149,0.023-0.33-0.065-0.539l-5.129-12.318l0.289-0.123c0.172,0.224,0.326,0.361,0.474,0.417
			c0.146,0.051,0.319,0.04,0.519-0.043l11.233-4.681c0.195-0.083,0.325-0.193,0.391-0.335c0.063-0.141,0.077-0.35,0.042-0.626
			l0.288-0.123l1.823,4.386l-0.289,0.115c-0.166-0.224-0.318-0.36-0.467-0.416c-0.147-0.052-0.324-0.035-0.531,0.047
			L330.241,154.506z"/>
	</g>
	<g>
		<path fill="#FFFFFF" stroke="#FFFFFF" stroke-width="0.1307" d="M83.764,234.454l-1.139-3.589
			c-0.071-0.213-0.172-0.365-0.301-0.447c-0.13-0.079-0.331-0.119-0.588-0.114l-0.112-0.343l3.188-1.009l0.109,0.341
			c-0.227,0.15-0.37,0.293-0.423,0.432c-0.055,0.134-0.049,0.314,0.019,0.536l2.19,6.865l-0.302,0.096
			c-0.15-0.232-0.297-0.387-0.431-0.453c-0.138-0.07-0.316-0.07-0.52-0.008l-2.803,0.895c-0.208,0.065-0.353,0.17-0.421,0.3
			c-0.075,0.134-0.105,0.344-0.089,0.626l-0.26,0.08c-2.37-2.271-3.965-4.699-4.79-7.275c-0.741-2.34-0.828-4.416-0.251-6.224
			c0.735-2.284,2.275-3.798,4.627-4.55c2.193-0.696,4.207-0.432,6.031,0.808c1.727,1.171,3.003,3.05,3.837,5.648
			c0.258,0.824,0.433,1.626,0.528,2.4c0.091,0.776,0.117,1.678,0.073,2.72c-0.027,0.538-0.003,0.903,0.059,1.109
			c0.054,0.151,0.181,0.299,0.396,0.444l-0.041,0.396l-3.811-0.664l0.047-0.347c0.215-0.081,0.366-0.16,0.443-0.249
			c0.074-0.085,0.15-0.25,0.224-0.492c0.168-0.524,0.228-1.244,0.175-2.147c-0.054-0.899-0.195-1.719-0.435-2.466
			c-0.478-1.511-1.281-2.633-2.401-3.37c-1.267-0.84-2.646-1.02-4.133-0.541c-1.445,0.456-2.437,1.377-2.972,2.757
			c-0.501,1.268-0.487,2.721,0.039,4.36c0.257,0.796,0.593,1.561,1.019,2.283c0.415,0.723,0.873,1.318,1.354,1.787L83.764,234.454z"
			/>
		<path fill="#FFFFFF" stroke="#FFFFFF" stroke-width="0.1307" d="M102.745,251.089c1.435,2.229,1.998,4.36,1.695,6.399
			c-0.302,2.145-1.397,3.828-3.289,5.039c-1.154,0.747-2.448,1.107-3.881,1.096c-2.786-0.032-5.132-1.52-7.028-4.464
			c-1.416-2.208-1.98-4.332-1.679-6.369c0.165-1.087,0.546-2.089,1.172-3.001c0.54-0.797,1.225-1.466,2.052-1.995
			c1.214-0.781,2.532-1.165,3.956-1.151C98.468,246.664,100.802,248.145,102.745,251.089z M100.7,252.424
			c-0.776-1.213-1.772-2.007-2.978-2.377c-1.427-0.44-2.792-0.24-4.106,0.604c-1.305,0.841-2.054,2-2.249,3.484
			c-0.163,1.249,0.147,2.483,0.936,3.711c0.792,1.227,1.786,2.023,2.989,2.388c0.709,0.218,1.447,0.266,2.202,0.138
			c0.668-0.112,1.285-0.349,1.848-0.711c1.366-0.877,2.134-2.051,2.304-3.517C101.792,254.901,101.476,253.658,100.7,252.424z"/>
		<path fill="#FFFFFF" stroke="#FFFFFF" stroke-width="0.1307" d="M124.318,277.887l-5.566,5.82
			c-1.052,1.104-2.052,1.724-3.003,1.865c-1.713,0.249-3.774-0.779-6.192-3.087c-1.744-1.668-2.824-3.208-3.243-4.628
			c-0.243-0.826-0.221-1.606,0.086-2.335c0.301-0.724,0.793-1.452,1.496-2.181l5.564-5.828c0.153-0.156,0.228-0.309,0.228-0.464
			c0.005-0.158-0.068-0.348-0.219-0.59l0.219-0.23l3.435,3.281l-0.222,0.23c-0.233-0.137-0.433-0.203-0.589-0.194
			c-0.161,0.009-0.316,0.094-0.466,0.253l-4.95,5.185c-0.57,0.595-0.962,1.071-1.163,1.428c-0.207,0.354-0.304,0.715-0.296,1.092
			c0.022,1.016,0.655,2.114,1.899,3.3c1.247,1.2,2.378,1.782,3.392,1.756c0.374-0.015,0.728-0.132,1.076-0.354
			c0.34-0.213,0.801-0.628,1.374-1.225l4.953-5.181c0.147-0.166,0.221-0.322,0.221-0.474c0.012-0.153-0.062-0.355-0.214-0.584
			l0.214-0.236l3.241,3.094l-0.218,0.233c-0.242-0.139-0.443-0.207-0.596-0.198C124.618,277.645,124.467,277.725,124.318,277.887z"
			/>
		<path fill="#FFFFFF" stroke="#FFFFFF" stroke-width="0.1307" d="M132.972,293.253l-2.497,4.096
			c-0.112,0.18-0.151,0.342-0.119,0.502c0.036,0.153,0.147,0.337,0.339,0.524l-0.172,0.267l-4.047-2.474l0.166-0.276
			c0.266,0.087,0.472,0.112,0.62,0.063c0.154-0.035,0.281-0.145,0.393-0.327l6.349-10.386c0.113-0.189,0.152-0.357,0.121-0.508
			c-0.031-0.153-0.141-0.324-0.339-0.528l0.166-0.274l8.099,4.956c0.982,0.604,1.736,1.132,2.252,1.592
			c0.51,0.464,0.897,0.954,1.163,1.486c0.313,0.613,0.433,1.263,0.358,1.942c-0.077,0.654-0.302,1.268-0.649,1.85
			c-1.217,1.987-3.101,2.435-5.653,1.337l0.428,4.961c0.076,0.873,0.171,1.455,0.272,1.747c0.1,0.297,0.296,0.545,0.583,0.753
			l-0.165,0.266l-4.64-2.838l0.16-0.268c0.354,0.147,0.581,0.138,0.678-0.036c0.068-0.106,0.08-0.459,0.042-1.057l-0.407-5.235
			L132.972,293.253z M134.199,291.245l4.364,2.668c0.647,0.39,1.107,0.656,1.394,0.78c0.29,0.117,0.58,0.195,0.875,0.221
			c0.627,0.047,1.135-0.246,1.522-0.884c0.393-0.636,0.419-1.227,0.094-1.764c-0.156-0.26-0.351-0.49-0.587-0.67
			c-0.242-0.188-0.688-0.487-1.343-0.888l-4.359-2.662L134.199,291.245z"/>
		<path fill="#FFFFFF" stroke="#FFFFFF" stroke-width="0.1307" d="M161.15,313.505l-2.011-11.209l-2.909,8.341
			c-0.075,0.212-0.075,0.378-0.013,0.521c0.065,0.14,0.212,0.286,0.44,0.449l-0.101,0.298l-4.227-1.476l0.101-0.301
			c0.284,0.024,0.49,0,0.626-0.077c0.14-0.063,0.239-0.207,0.313-0.408l4.007-11.498c0.068-0.198,0.074-0.366,0.012-0.511
			c-0.064-0.145-0.213-0.286-0.447-0.445l0.106-0.3l5.522,1.93l-0.103,0.3c-0.356-0.038-0.581,0.089-0.684,0.378
			c-0.042,0.13-0.047,0.298-0.008,0.508l1.44,8.406l6.372-5.549c0.284-0.248,0.446-0.437,0.5-0.573
			c0.09-0.271-0.032-0.486-0.37-0.646l0.104-0.299l5.419,1.894l-0.106,0.297c-0.275-0.023-0.486,0-0.626,0.073
			c-0.135,0.073-0.233,0.205-0.307,0.406l-4.008,11.496c-0.067,0.204-0.073,0.379-0.015,0.522c0.063,0.141,0.21,0.283,0.443,0.437
			l-0.099,0.302l-4.484-1.56l0.101-0.295c0.271,0.023,0.475,0,0.619-0.077c0.14-0.073,0.249-0.207,0.322-0.418l2.907-8.344
			L161.15,313.505z"/>
		<path fill="#FFFFFF" stroke="#FFFFFF" stroke-width="0.1307" d="M188.778,314.007l-0.543,3.946l9.648,1.319
			c0.221,0.03,0.396,0.006,0.526-0.077c0.129-0.083,0.25-0.242,0.357-0.483l0.354,0.043l-0.501,3.674l-0.355-0.046
			c-0.042-0.265-0.106-0.449-0.218-0.567c-0.098-0.109-0.264-0.183-0.481-0.213l-13.635-1.871l0.043-0.309
			c0.275-0.032,0.476-0.103,0.59-0.198c0.128-0.095,0.201-0.253,0.23-0.469l1.647-12.05c0.03-0.217,0-0.385-0.085-0.509
			c-0.093-0.129-0.26-0.241-0.523-0.354l0.039-0.306l13.373,1.829c0.218,0.023,0.389,0,0.522-0.088
			c0.132-0.077,0.248-0.237,0.354-0.478l0.363,0.053l-0.498,3.671l-0.367-0.046c-0.042-0.259-0.105-0.448-0.212-0.562
			c-0.101-0.116-0.269-0.19-0.481-0.224l-9.382-1.287l-0.461,3.365l6.11,0.838c0.219,0.023,0.392,0.002,0.525-0.083
			c0.133-0.079,0.251-0.242,0.361-0.483l0.356,0.05l-0.492,3.581l-0.357-0.047c-0.039-0.254-0.111-0.443-0.215-0.555
			c-0.106-0.12-0.268-0.198-0.484-0.224L188.778,314.007z"/>
		<path fill="#FFFFFF" stroke="#FFFFFF" stroke-width="0.1307" d="M219.428,310.061l0.367,10.895
			c0.006,0.213,0.071,0.378,0.177,0.494c0.106,0.105,0.302,0.191,0.579,0.256l0.005,0.313l-4.746,0.157l-0.011-0.313
			c0.271-0.08,0.454-0.181,0.555-0.298c0.1-0.112,0.152-0.277,0.141-0.496l-0.367-10.892l-4.717,0.16
			c-0.223,0.009-0.39,0.059-0.502,0.162c-0.118,0.1-0.207,0.281-0.272,0.543l-0.359,0.009l-0.13-3.701l0.36-0.019
			c0.092,0.255,0.201,0.432,0.316,0.526c0.119,0.092,0.29,0.136,0.508,0.131l12.719-0.432c0.23-0.005,0.403-0.064,0.519-0.167
			c0.113-0.098,0.196-0.281,0.266-0.543l0.361-0.009l0.128,3.708l-0.358,0.011c-0.088-0.253-0.189-0.431-0.314-0.525
			c-0.118-0.096-0.294-0.136-0.519-0.128L219.428,310.061z"/>
		<path fill="#FFFFFF" stroke="#FFFFFF" stroke-width="0.1307" d="M255.254,309.857l1.559,4.954c0.071,0.21,0.177,0.348,0.313,0.431
			c0.14,0.077,0.348,0.106,0.619,0.088l0.094,0.3l-4.527,1.441l-0.095-0.306c0.236-0.151,0.39-0.296,0.454-0.436
			c0.066-0.144,0.066-0.31,0-0.522L250,304.215c-0.07-0.207-0.165-0.348-0.3-0.426c-0.136-0.077-0.336-0.104-0.62-0.087
			l-0.094-0.305l12.773-4.046c0.213-0.069,0.36-0.165,0.443-0.295c0.083-0.124,0.118-0.318,0.112-0.594l0.349-0.105l1.121,3.533
			l-0.348,0.112c-0.154-0.224-0.295-0.367-0.438-0.426c-0.14-0.056-0.317-0.046-0.531,0.018l-8.937,2.831l1.039,3.28l5.869-1.86
			c0.212-0.07,0.364-0.17,0.447-0.3c0.083-0.133,0.125-0.331,0.113-0.591l0.348-0.108l1.091,3.451l-0.341,0.105
			c-0.148-0.214-0.295-0.354-0.437-0.412c-0.142-0.06-0.326-0.057-0.544,0.011L255.254,309.857z"/>
		<path fill="#FFFFFF" stroke="#FFFFFF" stroke-width="0.1307" d="M279.079,291.03c2.326-1.27,4.493-1.677,6.505-1.225
			c2.113,0.454,3.712,1.671,4.788,3.641c0.655,1.211,0.926,2.527,0.809,3.954c-0.231,2.783-1.89,5.009-4.959,6.685
			c-2.308,1.252-4.462,1.659-6.476,1.21c-1.075-0.236-2.042-0.691-2.904-1.378c-0.761-0.6-1.369-1.331-1.848-2.199
			c-0.678-1.258-0.967-2.604-0.862-4.026C274.351,294.976,276.004,292.753,279.079,291.03z M280.26,293.167
			c-1.271,0.694-2.131,1.625-2.586,2.801c-0.542,1.386-0.443,2.769,0.307,4.131c0.737,1.37,1.842,2.202,3.313,2.503
			c1.227,0.254,2.49,0.026,3.765-0.67c1.286-0.699,2.149-1.633,2.603-2.804c0.26-0.694,0.366-1.425,0.295-2.187
			c-0.064-0.679-0.259-1.304-0.572-1.895c-0.785-1.423-1.895-2.279-3.341-2.55C282.809,292.261,281.552,292.485,280.26,293.167z"/>
		<path fill="#FFFFFF" stroke="#FFFFFF" stroke-width="0.1307" d="M301.528,275.477c1.995-1.74,4.026-2.605,6.081-2.605
			c2.167-0.006,3.991,0.835,5.472,2.528c0.891,1.037,1.441,2.269,1.634,3.685c0.373,2.763-0.76,5.295-3.406,7.598
			c-1.977,1.724-3.995,2.579-6.05,2.579c-1.104,0-2.148-0.242-3.14-0.721c-0.868-0.427-1.629-1.001-2.267-1.746
			c-0.945-1.086-1.517-2.329-1.718-3.743C297.762,280.351,298.889,277.831,301.528,275.477z M303.134,277.312
			c-1.086,0.947-1.729,2.044-1.918,3.285c-0.225,1.475,0.171,2.797,1.192,3.976c1.022,1.176,2.28,1.745,3.772,1.726
			c1.257-0.018,2.437-0.508,3.537-1.464c1.103-0.962,1.747-2.061,1.929-3.303c0.112-0.735,0.053-1.466-0.171-2.199
			c-0.213-0.644-0.538-1.219-0.981-1.724c-1.067-1.228-2.337-1.81-3.807-1.771C305.43,275.874,304.244,276.367,303.134,277.312z"/>
		<path fill="#FFFFFF" stroke="#FFFFFF" stroke-width="0.1307" d="M326.404,269.432l-9.906-7.069
			c-0.171-0.132-0.337-0.181-0.483-0.16c-0.16,0.02-0.344,0.116-0.562,0.303l-0.253-0.189l4.928-6.896
			c1.082-1.517,2.061-2.559,2.97-3.136c1.304-0.821,2.691-1.127,4.179-0.906c1.169,0.171,2.326,0.667,3.478,1.481
			c2.006,1.437,3.069,3.188,3.193,5.25c0.046,0.87-0.088,1.736-0.431,2.617c-0.331,0.872-0.909,1.878-1.724,3.022l-4.922,6.899
			l-0.26-0.187c0.1-0.257,0.135-0.47,0.106-0.617C326.687,269.695,326.581,269.554,326.404,269.432z M327.294,266l2.415-3.39
			c0.778-1.08,1.216-1.995,1.327-2.737c0.23-1.594-0.518-3.013-2.261-4.252c-1.251-0.894-2.437-1.268-3.559-1.117
			c-0.62,0.084-1.186,0.323-1.694,0.699c-0.514,0.386-1.063,0.991-1.653,1.811l-2.42,3.399L327.294,266z"/>
		<path fill="#FFFFFF" stroke="#FFFFFF" stroke-width="0.1307" d="M335.961,227.028l2.467,2.931l-0.271,0.223
			c-0.059-0.03-0.112-0.057-0.154-0.075c-0.224-0.083-0.537,0.023-0.95,0.316c-1.292,0.911-2.261,2.187-2.923,3.838
			c-0.283,0.724-0.455,1.403-0.506,2.022c-0.03,0.454,0.035,0.863,0.194,1.218c0.165,0.349,0.402,0.586,0.708,0.711
			c0.496,0.198,0.969,0.014,1.405-0.553c0.226-0.296,0.603-0.962,1.133-2.005l0.796-1.557c0.479-0.921,0.921-1.65,1.33-2.175
			c0.407-0.526,0.854-0.961,1.338-1.302c0.514-0.34,1.075-0.544,1.707-0.606c0.632-0.064,1.239,0.023,1.835,0.256
			c0.939,0.372,1.642,1.025,2.119,1.952c0.442,0.843,0.579,1.932,0.407,3.278c-0.112,1-0.383,2.021-0.797,3.06
			c-0.736,1.864-1.882,3.532-3.452,5.008c-0.326,0.322-0.496,0.515-0.526,0.589c-0.042,0.095-0.024,0.265,0.041,0.508l-0.266,0.246
			l-2.667-2.826l0.26-0.243c0.057,0.024,0.099,0.039,0.123,0.051c0.295,0.114,0.62,0.071,0.98-0.125
			c0.561-0.297,1.157-0.856,1.8-1.685c0.649-0.823,1.14-1.659,1.464-2.494c0.367-0.911,0.532-1.75,0.49-2.515
			c-0.023-0.417-0.124-0.791-0.307-1.114c-0.189-0.316-0.431-0.536-0.726-0.657c-0.449-0.173-0.868-0.05-1.257,0.373
			c-0.266,0.301-0.674,0.961-1.205,1.986l-0.785,1.522c-0.526,1.026-0.927,1.738-1.199,2.137c-0.265,0.406-0.589,0.787-0.974,1.145
			c-0.542,0.509-1.181,0.823-1.906,0.947c-0.649,0.116-1.322,0.041-2.007-0.235c-1.127-0.443-1.901-1.223-2.308-2.335
			c-0.543-1.455-0.395-3.253,0.459-5.401c0.355-0.901,0.774-1.709,1.258-2.417c0.479-0.71,1.187-1.555,2.107-2.531
			c0.312-0.339,0.485-0.556,0.52-0.647c0.059-0.139,0.053-0.335-0.03-0.592L335.961,227.028z"/>
	</g>
	<path fill="none" stroke="#D2A32C" stroke-width="1.0758" d="M212.207,294.058c-62.085,0-112.411-44.2-112.411-98.722
		c0-54.523,50.326-98.724,112.411-98.724c62.09,0,112.426,44.201,112.426,98.724C324.633,249.858,274.297,294.058,212.207,294.058z"
		/>
	<g>
		<path fill="#38356B" d="M166.114,122.935c-0.493,0.254-0.661,4.817-1.147,5.072c-26.96,14.392-44.964,40.333-44.964,69.959
			c0,39.393,31.818,72.285,74.208,80.14l2.045-9.047l-2.208-3.354c-0.832-0.168-0.9,2.724-1.715,2.533
			c-35.565-8.25-61.781-36.579-61.781-70.272c0-25.38,14.893-47.716,37.445-60.723v-10.783L166.114,122.935z M213.723,116.037
			c-3.975,0-7.89,0.239-11.728,0.662l-3.576,6.126l3.576,3.167c3.832-0.474,7.748-0.74,11.728-0.74
			c45.935,0,83.166,32.562,83.166,72.713c0,34.53-27.538,63.42-64.462,70.837l-0.502,5.767l2.226,3.358
			c41.93-8.152,73.292-40.843,73.292-79.962C307.443,152.722,265.479,116.037,213.723,116.037z"/>
		<g>
			<path fill="#38356B" d="M266.582,207.967c0.708-0.946,2.102-1.692,4.197-2.257v-2.768l-1.89-3.124l-47.766,3.124v-23.019h21.073
				c2.35,0,4.014,0.346,4.988,1.044c0.495,0.35-0.496,0.018-0.118,0.723c0.178,0.247,2.349,3.5,2.349,3.5h2.769v-21.356
				l-2.285-3.957c-0.507,2.105-1.729,7.465-2.714,8.166c-0.974,0.704-2.645,1.058-4.996,1.058h-39.653v2.774
				c2.087,0.51,3.482,1.252,4.199,2.229c0.706,0.982,1.079,2.654,1.079,5.013V245.7c-13.227-0.68-24.249-4.66-33.037-12.022
				c-10.521-8.795-15.779-20.601-15.779-35.434c0-15.219,5.516-27.303,16.552-36.263c0.886-0.726,1.813-1.384,2.739-2.043v44.203
				c0,2.356-0.342,4.02-1.033,4.967c-0.685,0.956-6.068,1.871-8.22,2.431l3.988,2.62h23.855v-2.777l-3.472-2.679
				c-0.699-0.374-0.441,0.881-0.773,0.406c-0.685-0.947-1.022-2.611-1.022-4.967v-51.012c5.939-1.983,12.434-2.978,19.486-2.978
				c12.091,0,23.91,1.927,35.45,7.577c5.997,2.873,18.188,10.549,19.096,11.97c0.188,0.292-1.404-0.167-1.292,0.389l1.983,3.742
				l2.65-0.182l0.13-24.998l-1.924-4.283c-0.344,3-1.801,7.27-2.822,7.32c-0.567,0.036-3.571-1.423-6.057-2.497
				c-6.127-2.646-15.217-6.166-22.403-7.832c-7.178-1.655-15.801-2.862-24.218-2.862c-7.027,0-13.716,0.818-20.08,2.417v-12.531
				c0-2.365,0.35-4.019,1.064-4.973c0.71-0.948,2.115-1.71,2.498-2.27l-1.767-6.795l-20.383,4.02l2.145,2.458
				c2.087,0.503,1.337,1.564,2.055,2.544c0.706,0.981,1.066,2.65,1.066,5.015v17.322c-8.842,4.225-16.123,10.058-21.804,17.556
				c-7.579,10.049-11.353,21.559-11.353,34.521c0,9.043,1.927,17.63,5.795,25.771c3.419,7.134,8.044,13.256,13.868,18.36
				c11.1,9.748,25.457,14.862,43.019,15.466v12.287c0,2.356-0.373,4.021-1.079,4.977c-0.717,0.951-7.688,3.005-9.775,3.565
				l5.576,1.476h23.853v-2.775c-2.144-0.56-3.56-1.315-4.244-2.273c-0.679-0.962-1.021-2.632-1.021-4.996v-12.654
				c11.629-1.17,22.225-4.415,31.752-9.803c5.608-3.154,11.577-7.575,17.904-13.269v-2.492l-1.89-2.512c0,0-1.794,0.945-2.308,0.257
				c-0.714-0.942-1.074-2.583-1.074-4.925v-11.345C265.508,210.556,265.868,208.916,266.582,207.967z M252.75,231.589
				c-4.922,4.499-10.978,8-18.175,10.5c-4.338,1.514-8.837,2.51-13.452,3.114v-31.443h31.627V231.589z"/>
		</g>
		<polygon fill="#38356B" points="282.219,195.399 292.172,191.495 290.207,188.696 282.219,187.591 278.028,169.487 
			276.057,166.69 273.826,187.591 261.908,188.696 263.874,191.495 273.826,195.399 276.057,210.703 278.028,213.502 		"/>
		<polygon fill="#DBC181" points="280.254,192.601 290.207,188.696 280.254,184.798 276.057,166.69 271.86,184.798 261.908,188.696 
			271.86,192.601 276.057,210.703 		"/>
		<path fill="#FFFFFF" d="M264.599,204.959c0.726-0.969,2.155-1.731,4.291-2.301v-2.839h-52.95v-23.516h23.755
			c2.402,0,4.103,0.362,5.1,1.076c0.998,0.712,1.753,2.148,2.273,4.312h2.833v-21.813h-2.833c-0.52,2.154-1.275,3.586-2.273,4.304
			c-0.997,0.714-2.709,1.076-5.106,1.076H196.96v2.835c2.134,0.517,3.554,1.275,4.295,2.276c0.723,1.006,1.095,2.714,1.095,5.114
			v67.884c-12.526-1.011-23.04-5.045-31.522-12.155c-10.748-8.977-16.115-21.035-16.115-36.183c0-15.55,5.634-27.896,16.909-37.04
			c0.905-0.742,1.85-1.411,2.795-2.086v45.404c0,2.407-0.355,4.104-1.051,5.076c-0.699,0.975-2.143,1.753-4.33,2.318v2.836h24.371
			v-2.836c-2.192-0.565-3.633-1.343-4.342-2.318c-0.693-0.971-1.051-2.669-1.051-5.076v-52.361
			c6.067-2.03,12.701-3.049,19.907-3.049c12.357,0,24.435,1.967,36.217,7.745c6.133,2.933,18.572,10.772,19.504,12.227
			c0.449,0.708,0.685,2.226,0.709,4.217l2.708-0.182l0.131-25.539l-2.738,0.02c-0.35,3.059-1.07,3.039-2.115,3.085
			c-0.579,0.03-3.648-1.453-6.192-2.559c-6.247-2.695-15.531-6.286-22.869-7.986c-7.337-1.697-16.151-2.929-24.737-2.929
			c-7.183,0-14.021,0.836-20.525,2.471v-11.894c0-2.41,0.372-4.099,1.095-5.071c0.731-0.975,2.16-1.75,4.297-2.328v-2.831h-24.371
			v2.831c2.132,0.519,3.565,1.285,4.289,2.284c0.732,1.005,1.092,2.706,1.092,5.116v16.785
			c-9.024,4.315-16.469,10.277-22.272,17.933c-7.732,10.262-11.597,22.022-11.597,35.267c0,9.232,1.978,18.004,5.924,26.32
			c3.487,7.287,8.21,13.534,14.168,18.751c10.858,9.543,24.779,14.754,41.71,15.711v12.637c0,2.405-0.372,4.106-1.095,5.074
			c-0.741,0.974-2.161,1.747-4.295,2.319v2.833h24.37v-2.833c-2.184-0.578-3.637-1.351-4.339-2.325
			c-0.697-0.981-1.051-2.675-1.051-5.095V255.21c12.756-0.98,24.325-4.354,34.663-10.201c5.727-3.223,11.818-7.739,18.288-13.552
			v-2.549c-2.136-0.566-3.565-1.336-4.291-2.301c-0.733-0.966-1.093-2.636-1.093-5.025v-11.596
			C263.506,207.6,263.866,205.927,264.599,204.959z M250.473,229.087c-5.029,4.595-11.216,8.168-18.565,10.719
			c-5.127,1.788-10.461,2.911-15.969,3.447v-32.38h34.534V229.087z"/>
		<path fill="#DBC181" d="M166.114,122.935c-28.813,13.972-48.325,40.838-48.325,71.685c0,39.389,31.808,72.278,74.198,80.132
			l2.06-9.047c-37.546-7.015-65.708-36.172-65.708-71.085c0-25.535,15.071-47.95,37.836-60.923v-10.62L166.114,122.935z
			 M211.514,112.685c-4.45,0-8.816,0.296-13.095,0.822v9.319c4.262-0.593,8.632-0.917,13.095-0.917
			c45.925,0,83.167,32.553,83.167,72.712c0,34.519-27.55,63.417-64.474,70.839l1.717,9.111c41.936-8.152,73.298-40.843,73.298-79.95
			C305.223,149.369,263.264,112.685,211.514,112.685z"/>
	</g>
	
		<path fill="none" stroke="#72C276" stroke-width="1.41" stroke-linecap="round" stroke-dasharray="0.3524,2.8,0.3524,2.8,0.3524,2.81" d="
		M212.302,28.829c-99.235,0-179.694,74.421-179.694,166.219c0,91.793,80.459,166.219,179.694,166.219
		c99.25,0,179.72-74.426,179.72-166.219C392.022,103.25,311.551,28.829,212.302,28.829z"/>
	<path fill="none" stroke="#D1A943" stroke-width="1.6337" stroke-linecap="round" d="M212.116,20.413
		c-104.351,0-188.959,78.243-188.959,174.753c0,96.508,84.609,174.756,188.959,174.756c104.37,0,188.979-78.248,188.979-174.756
		C401.095,98.656,316.486,20.413,212.116,20.413z"/>
</g>
</svg>
